PathFileType	4	(X/Y/Z)	 New Session 106.trc
DataRate	CameraRate	NumFrames	NumMarkers	Units	OrigDataRate	OrigDataStartFrame	OrigNumFrames
100	100	12	14	m	100	91	724
Frame#	Time	C7			T8			IJ			PX			AA			AC			AI			TS			SC			GH			LE			ME			US			RS			
		X1	Y1	Z1	X2	Y2	Z2	X3	Y3	Z3	X4	Y4	Z4	X5	Y5	Z5	X6	Y6	Z6	X7	Y7	Z7	X8	Y8	Z8	X9	Y9	Z9	X10	Y10	Z10	X11	Y11	Z11	X12	Y12	Z12	X13	Y13	Z13	X14	Y14	Z14	
91	0.9100	0.019763	0.102897	0.167451	0.021021	-0.112760	0.234238	0.000033	0.001843	-0.000033	0.004372	-0.140071	-0.069949	0.207018	0.022166	0.162541	0.160621	0.062595	0.087018	0.094708	0.025381	0.208578	0.099303	-0.094426	0.233060	0.024660	0.010965	0.004446	0.220959	0.038093	0.123899	0.307523	-0.248557	0.098714	0.223913	-0.298068	0.116129	0.290501	-0.396712	-0.137858	0.281488	-0.320544	-0.158862	
92	0.9200	0.019725	0.102911	0.167387	0.021006	-0.112739	0.234254	0.000103	0.001854	-0.000166	0.004369	-0.140065	-0.070033	0.207017	0.022191	0.162438	0.160584	0.062612	0.086940	0.094692	0.025411	0.208510	0.099303	-0.094406	0.232997	0.024617	0.010972	0.004367	0.220939	0.038117	0.123802	0.307525	-0.248531	0.098616	0.223908	-0.298058	0.116032	0.290419	-0.396686	-0.137964	0.281309	-0.320541	-0.158943	
93	0.9300	0.019690	0.102925	0.167314	0.020989	-0.112719	0.234236	0.000125	0.001884	-0.000284	0.004361	-0.140054	-0.070122	0.207019	0.022224	0.162333	0.160549	0.062631	0.086863	0.094678	0.025459	0.208439	0.099300	-0.094381	0.232922	0.024579	0.010992	0.004275	0.220923	0.038143	0.123703	0.307545	-0.248492	0.098528	0.223899	-0.298042	0.115950	0.290335	-0.396654	-0.138072	0.281108	-0.320542	-0.159025	
94	0.9400	0.019659	0.102941	0.167238	0.020971	-0.112701	0.234192	0.000100	0.001912	-0.000375	0.004341	-0.140042	-0.070205	0.207013	0.022260	0.162240	0.160515	0.062651	0.086786	0.094656	0.025500	0.208370	0.099292	-0.094349	0.232844	0.024554	0.011010	0.004182	0.220908	0.038168	0.123604	0.307568	-0.248450	0.098438	0.223892	-0.298024	0.115868	0.290262	-0.396625	-0.138179	0.280921	-0.320543	-0.159110	
95	0.9500	0.019631	0.102952	0.167170	0.020952	-0.112685	0.234134	0.000044	0.001930	-0.000441	0.004320	-0.140036	-0.070283	0.206991	0.022286	0.162159	0.160480	0.062672	0.086711	0.094629	0.025515	0.208294	0.099280	-0.094314	0.232766	0.024522	0.011009	0.004096	0.220894	0.038191	0.123504	0.307586	-0.248418	0.098338	0.223893	-0.298011	0.115773	0.290200	-0.396604	-0.138281	0.280770	-0.320545	-0.159199	
96	0.9600	0.019602	0.102956	0.167112	0.020930	-0.112670	0.234071	-0.000019	0.001940	-0.000498	0.004306	-0.140039	-0.070355	0.206966	0.022300	0.162076	0.160443	0.062690	0.086637	0.094599	0.025509	0.208201	0.099265	-0.094286	0.232690	0.024476	0.010995	0.004016	0.220878	0.038209	0.123406	0.307604	-0.248393	0.098233	0.223900	-0.297999	0.115667	0.290140	-0.396598	-0.138377	0.280659	-0.320549	-0.159292	
97	0.9700	0.019565	0.102958	0.167052	0.020908	-0.112656	0.234012	-0.000061	0.001945	-0.000564	0.004299	-0.140053	-0.070413	0.206947	0.022310	0.161986	0.160406	0.062708	0.086566	0.094564	0.025507	0.208106	0.099245	-0.094265	0.232616	0.024440	0.010984	0.003935	0.220860	0.038225	0.123313	0.307617	-0.248367	0.098132	0.223901	-0.297982	0.115568	0.290074	-0.396599	-0.138469	0.280577	-0.320559	-0.159386	
98	0.9800	0.019520	0.102959	0.166971	0.020884	-0.112641	0.233963	-0.000066	0.001948	-0.000654	0.004294	-0.140077	-0.070453	0.206925	0.022329	0.161898	0.160370	0.062728	0.086494	0.094523	0.025524	0.208033	0.099221	-0.094248	0.232547	0.024425	0.010988	0.003846	0.220840	0.038242	0.123224	0.307601	-0.248335	0.098035	0.223886	-0.297962	0.115484	0.290002	-0.396600	-0.138556	0.280512	-0.320576	-0.159481	
99	0.9900	0.019479	0.102959	0.166864	0.020860	-0.112626	0.233926	-0.000052	0.001960	-0.000762	0.004290	-0.140101	-0.070486	0.206899	0.022366	0.161814	0.160336	0.062750	0.086416	0.094477	0.025540	0.207954	0.099196	-0.094225	0.232487	0.024412	0.011007	0.003753	0.220817	0.038263	0.123137	0.307558	-0.248301	0.097942	0.223855	-0.297942	0.115412	0.289933	-0.396599	-0.138636	0.280459	-0.320600	-0.159577	
100	1.0000	0.019450	0.102957	0.166745	0.020838	-0.112609	0.233897	-0.000051	0.001985	-0.000875	0.004285	-0.140103	-0.070547	0.206876	0.022409	0.161720	0.160302	0.062776	0.086330	0.094430	0.025549	0.207857	0.099175	-0.094193	0.232433	0.024380	0.011039	0.003659	0.220789	0.038288	0.123046	0.307502	-0.248273	0.097851	0.223815	-0.297925	0.115345	0.289873	-0.396594	-0.138711	0.280424	-0.320626	-0.159672	
101	1.0100	0.019427	0.102961	0.166639	0.020818	-0.112591	0.233870	-0.000082	0.002021	-0.000978	0.004274	-0.140064	-0.070659	0.206855	0.022441	0.161611	0.160267	0.062800	0.086239	0.094400	0.025564	0.207773	0.099155	-0.094153	0.232382	0.024334	0.011075	0.003569	0.220756	0.038317	0.122948	0.307421	-0.248257	0.097755	0.223775	-0.297906	0.115275	0.289822	-0.396590	-0.138785	0.280424	-0.320647	-0.159759	
102	1.0200	0.019405	0.102968	0.166555	0.020800	-0.112572	0.233834	-0.000131	0.002065	-0.001066	0.004260	-0.140015	-0.070793	0.206830	0.022460	0.161495	0.160235	0.062818	0.086151	0.094387	0.025584	0.207695	0.099135	-0.094113	0.232326	0.024302	0.011104	0.003489	0.220720	0.038342	0.122848	0.307296	-0.248252	0.097658	0.223744	-0.297882	0.115208	0.289781	-0.396589	-0.138855	0.280470	-0.320657	-0.159830	
